<?xml version="1.0" encoding="UTF-8"?>
<svg width="256px" height="256px" viewBox="0 0 256 256" version="1.1" xmlns="http://www.w3.org/2000/svg">
    <g stroke="none" stroke-width="1" fill="none" fill-rule="evenodd">
        <path d="M128,0 C57.3075981,0 0,57.307374 0,128 C0,198.69341 57.3075981,256 128,256 C198.69241,256 256,198.69341 256,128 C256,57.307374 198.69241,0 128,0 Z M186.207951,184.470125 C183.840654,188.521342 178.574443,189.697657 174.523225,187.330361 C144.67859,168.727498 106.697815,164.579671 62.7043742,174.711156 C58.1297723,175.816392 53.6020664,172.831383 52.4968298,168.256781 C51.3915933,163.682179 54.3766018,159.154473 58.9512036,158.049237 C107.498947,146.941911 149.766116,151.710044 183.347715,172.785399 C187.398933,175.152695 188.575248,180.418907 186.207951,184.470125 Z M201.764767,149.700936 C198.759758,154.840147 192.259012,156.324138 187.119801,153.31913 C153.171887,131.997906 101.122066,126.034962 60.7874555,138.436807 C55.0682388,140.099707 49.0529219,136.636202 47.3900223,130.917985 C45.7271226,125.198521 49.1906278,119.183204 54.9098444,117.520305 C101.122066,103.449959 159.263507,110.001913 198.14557,134.560725 C203.284781,137.565733 204.769919,144.066479 201.764767,149.700936 Z M203.001075,113.440353 C162.081567,88.7885834 94.1459154,86.5195904 54.8509849,98.4671686 C48.1841264,100.46367 41.1211502,96.4735821 39.1246518,89.8067236 C37.1281534,83.139865 41.1183219,76.0768888 47.7851804,74.0803904 C93.2838811,60.2625208 169.145228,62.9419672 216.678795,91.4829796 C222.752034,95.0576077 224.532987,102.884577 220.958359,108.899894 C217.383732,114.973133 209.556762,116.754086 203.483523,113.179458 L203.001075,113.440353 Z" fill="#1DB954" fill-rule="nonzero"></path>
    </g>
</svg>
